<svg width="56" height="56" viewBox="0 0 56 56" fill="none" xmlns="http://www.w3.org/2000/svg">
<path d="M0 9C0 4.02944 4.02944 0 9 0H47C51.9706 0 56 4.02944 56 9V47C56 51.9706 51.9706 56 47 56H9C4.02944 56 0 51.9706 0 47V9Z" fill="white"/>
<path d="M35.9999 17.3335H19.9999C18.5272 17.3335 17.3333 18.5274 17.3333 20.0002V36.0002C17.3333 37.4729 18.5272 38.6668 19.9999 38.6668H35.9999C37.4727 38.6668 38.6666 37.4729 38.6666 36.0002V20.0002C38.6666 18.5274 37.4727 17.3335 35.9999 17.3335Z" stroke="#1CA7E8" stroke-width="2" stroke-linecap="round" stroke-linejoin="round"/>
<path d="M30.6667 24H25.3333C24.597 24 24 24.597 24 25.3333V30.6667C24 31.403 24.597 32 25.3333 32H30.6667C31.403 32 32 31.403 32 30.6667V25.3333C32 24.597 31.403 24 30.6667 24Z" stroke="#1CA7E8" stroke-width="2" stroke-linecap="round" stroke-linejoin="round"/>
<path d="M32 14.6665V17.3332" stroke="#1CA7E8" stroke-width="2" stroke-linecap="round" stroke-linejoin="round"/>
<path d="M32 38.6665V41.3332" stroke="#1CA7E8" stroke-width="2" stroke-linecap="round" stroke-linejoin="round"/>
<path d="M14.6667 32H17.3334" stroke="#1CA7E8" stroke-width="2" stroke-linecap="round" stroke-linejoin="round"/>
<path d="M14.6667 24H17.3334" stroke="#1CA7E8" stroke-width="2" stroke-linecap="round" stroke-linejoin="round"/>
<path d="M38.6667 32H41.3334" stroke="#1CA7E8" stroke-width="2" stroke-linecap="round" stroke-linejoin="round"/>
<path d="M38.6667 24H41.3334" stroke="#1CA7E8" stroke-width="2" stroke-linecap="round" stroke-linejoin="round"/>
<path d="M24 14.6665V17.3332" stroke="#1CA7E8" stroke-width="2" stroke-linecap="round" stroke-linejoin="round"/>
<path d="M24 38.6665V41.3332" stroke="#1CA7E8" stroke-width="2" stroke-linecap="round" stroke-linejoin="round"/>
</svg>
