<svg width="56" height="56" viewBox="0 0 56 56" fill="none" xmlns="http://www.w3.org/2000/svg">
<path d="M0 9C0 4.02944 4.02944 0 9 0H47C51.9706 0 56 4.02944 56 9V47C56 51.9706 51.9706 56 47 56H9C4.02944 56 0 51.9706 0 47V9Z" fill="white"/>
<path d="M28 22.6665C34.6274 22.6665 40 20.8756 40 18.6665C40 16.4574 34.6274 14.6665 28 14.6665C21.3726 14.6665 16 16.4574 16 18.6665C16 20.8756 21.3726 22.6665 28 22.6665Z" stroke="#1CA7E8" stroke-width="2" stroke-linecap="round" stroke-linejoin="round"/>
<path d="M16 18.6665V37.3332C16 38.394 17.2643 39.4115 19.5147 40.1616C21.7652 40.9117 24.8174 41.3332 28 41.3332C31.1826 41.3332 34.2348 40.9117 36.4853 40.1616C38.7357 39.4115 40 38.394 40 37.3332V18.6665" stroke="#1CA7E8" stroke-width="2" stroke-linecap="round" stroke-linejoin="round"/>
<path d="M16 28C16 29.0609 17.2643 30.0783 19.5147 30.8284C21.7652 31.5786 24.8174 32 28 32C31.1826 32 34.2348 31.5786 36.4853 30.8284C38.7357 30.0783 40 29.0609 40 28" stroke="#1CA7E8" stroke-width="2" stroke-linecap="round" stroke-linejoin="round"/>
</svg>
