<svg width="56" height="56" viewBox="0 0 56 56" fill="none" xmlns="http://www.w3.org/2000/svg">
<path d="M0 9C0 4.02944 4.02944 0 9 0H47C51.9706 0 56 4.02944 56 9V47C56 51.9706 51.9706 56 47 56H9C4.02944 56 0 51.9706 0 47V9Z" fill="white"/>
<path d="M27.9999 18.6666C28.0015 18.1333 27.8964 17.6051 27.6909 17.113C27.4853 16.6209 27.1834 16.1749 26.803 15.8012C26.4225 15.4275 25.9712 15.1336 25.4755 14.9369C24.9798 14.7402 24.4498 14.6445 23.9166 14.6557C23.3834 14.6668 22.8578 14.7844 22.3708 15.0016C21.8837 15.2188 21.445 15.5312 21.0805 15.9204C20.7159 16.3097 20.4329 16.7679 20.248 17.2681C20.0631 17.7683 19.9801 18.3005 20.0039 18.8332C19.2202 19.0348 18.4926 19.412 17.8762 19.9363C17.2599 20.4607 16.7709 21.1184 16.4464 21.8597C16.1219 22.601 15.9703 23.4064 16.0031 24.215C16.036 25.0235 16.2524 25.814 16.6359 26.5266C15.9615 27.0745 15.4312 27.7789 15.0911 28.5785C14.7509 29.3781 14.6113 30.2487 14.6844 31.1146C14.7575 31.9804 15.041 32.8153 15.5103 33.5466C15.9797 34.2779 16.6206 34.8834 17.3773 35.3106C17.2838 36.0336 17.3396 36.768 17.5411 37.4686C17.7426 38.1692 18.0857 38.821 18.549 39.3838C19.0123 39.9467 19.5861 40.4085 20.2349 40.7409C20.8837 41.0733 21.5938 41.2691 22.3212 41.3164C23.0487 41.3636 23.7781 41.2611 24.4645 41.0154C25.1508 40.7696 25.7794 40.3858 26.3116 39.8876C26.8438 39.3894 27.2682 38.7873 27.5586 38.1187C27.8489 37.45 27.9992 36.7289 27.9999 35.9999V18.6666Z" stroke="#1CA7E8" stroke-width="2" stroke-linecap="round" stroke-linejoin="round"/>
<path d="M28 18.6666C27.9984 18.1333 28.1035 17.6051 28.3091 17.113C28.5147 16.6209 28.8165 16.1749 29.197 15.8012C29.5774 15.4275 30.0288 15.1336 30.5245 14.9369C31.0202 14.7402 31.5502 14.6445 32.0834 14.6557C32.6165 14.6668 33.1421 14.7844 33.6292 15.0016C34.1162 15.2188 34.5549 15.5312 34.9195 15.9204C35.284 16.3097 35.5671 16.7679 35.7519 17.2681C35.9368 17.7683 36.0198 18.3005 35.996 18.8332C36.7797 19.0348 37.5073 19.412 38.1237 19.9363C38.7401 20.4607 39.229 21.1184 39.5536 21.8597C39.8781 22.601 40.0297 23.4064 39.9968 24.215C39.964 25.0235 39.7476 25.814 39.364 26.5266C40.0384 27.0745 40.5688 27.7789 40.9089 28.5785C41.249 29.3781 41.3886 30.2487 41.3155 31.1146C41.2425 31.9804 40.9589 32.8153 40.4896 33.5466C40.0203 34.2779 39.3794 34.8834 38.6227 35.3106C38.7161 36.0336 38.6604 36.768 38.4588 37.4686C38.2573 38.1692 37.9143 38.821 37.451 39.3838C36.9877 39.9467 36.4139 40.4085 35.7651 40.7409C35.1162 41.0733 34.4062 41.2691 33.6787 41.3164C32.9512 41.3636 32.2218 41.2611 31.5355 41.0154C30.8492 40.7696 30.2205 40.3858 29.6883 39.8876C29.1562 39.3894 28.7318 38.7873 28.4414 38.1187C28.151 37.45 28.0008 36.7289 28 35.9999V18.6666Z" stroke="#1CA7E8" stroke-width="2" stroke-linecap="round" stroke-linejoin="round"/>
<path d="M32 29.3333C30.8806 28.9395 29.9031 28.2227 29.1911 27.2733C28.4791 26.324 28.0646 25.1849 28 24C27.9354 25.1849 27.5209 26.324 26.8089 27.2733C26.0969 28.2227 25.1194 28.9395 24 29.3333" stroke="#1CA7E8" stroke-width="2" stroke-linecap="round" stroke-linejoin="round"/>
<path d="M35.4653 20.6668C35.788 20.1076 35.9706 19.4786 35.9973 18.8335" stroke="#1CA7E8" stroke-width="2" stroke-linecap="round" stroke-linejoin="round"/>
<path d="M20.0039 18.8335C20.0303 19.4785 20.2123 20.1075 20.5346 20.6668" stroke="#1CA7E8" stroke-width="2" stroke-linecap="round" stroke-linejoin="round"/>
<path d="M16.636 26.528C16.8799 26.3293 17.1409 26.1527 17.416 26" stroke="#1CA7E8" stroke-width="2" stroke-linecap="round" stroke-linejoin="round"/>
<path d="M38.584 26C38.859 26.1527 39.1201 26.3293 39.364 26.528" stroke="#1CA7E8" stroke-width="2" stroke-linecap="round" stroke-linejoin="round"/>
<path d="M20.0001 36C19.0812 36.0004 18.1778 35.7634 17.3774 35.312" stroke="#1CA7E8" stroke-width="2" stroke-linecap="round" stroke-linejoin="round"/>
<path d="M38.6227 35.312C37.8223 35.7634 36.9189 36.0004 36 36" stroke="#1CA7E8" stroke-width="2" stroke-linecap="round" stroke-linejoin="round"/>
</svg>
