<svg width="56" height="56" viewBox="0 0 56 56" fill="none" xmlns="http://www.w3.org/2000/svg">
<path d="M0 9C0 4.02944 4.02944 0 9 0H47C51.9706 0 56 4.02944 56 9V47C56 51.9706 51.9706 56 47 56H9C4.02944 56 0 51.9706 0 47V9Z" fill="white"/>
<path fill-rule="evenodd" clip-rule="evenodd" d="M37.1508 27.3352L33.8945 23.5362L35.9193 21.8008L40.6631 27.3352L35.9193 32.8696L33.8945 31.1341L37.1508 27.3352Z" fill="#1CA7E8"/>
<path fill-rule="evenodd" clip-rule="evenodd" d="M20.0758 21.7979L22.1005 23.5333L18.8442 27.3322L22.1005 31.1312L20.0758 32.8666L15.332 27.3322L20.0758 21.7979Z" fill="#1CA7E8"/>
<path fill-rule="evenodd" clip-rule="evenodd" d="M23 38.5383L30.4559 16.667L33.0011 17.4624L25.5453 39.3337L23 38.5383Z" fill="#1CA7E8"/>
</svg>
