<svg width="48" height="48" viewBox="0 0 48 48" fill="none" xmlns="http://www.w3.org/2000/svg">
<path d="M0 9C0 4.02944 4.02944 0 9 0H39C43.9706 0 48 4.02944 48 9V39C48 43.9706 43.9706 48 39 48H9C4.02944 48 0 43.9706 0 39V9Z" fill="#E1F1F8"/>
<path d="M33.42 22.9221C33.5991 22.8431 33.751 22.7134 33.857 22.5489C33.963 22.3845 34.0184 22.1925 34.0164 21.9969C34.0143 21.8012 33.955 21.6104 33.8456 21.4482C33.7362 21.286 33.5817 21.1594 33.401 21.0841L24.83 17.1801C24.5695 17.0613 24.2864 16.9998 24 16.9998C23.7137 16.9998 23.4306 17.0613 23.17 17.1801L14.6 21.0801C14.422 21.1581 14.2706 21.2862 14.1642 21.4489C14.0579 21.6116 14.0012 21.8018 14.0012 21.9961C14.0012 22.1905 14.0579 22.3806 14.1642 22.5433C14.2706 22.706 14.422 22.8341 14.6 22.9121L23.17 26.8201C23.4306 26.939 23.7137 27.0005 24 27.0005C24.2864 27.0005 24.5695 26.939 24.83 26.8201L33.42 22.9221Z" stroke="#1CA7E8" stroke-width="2" stroke-linecap="round" stroke-linejoin="round"/>
<path d="M34 22V28" stroke="#1CA7E8" stroke-width="2" stroke-linecap="round" stroke-linejoin="round"/>
<path d="M18 24.5V28C18 28.7956 18.6321 29.5587 19.7574 30.1213C20.8826 30.6839 22.4087 31 24 31C25.5913 31 27.1174 30.6839 28.2426 30.1213C29.3679 29.5587 30 28.7956 30 28V24.5" stroke="#1CA7E8" stroke-width="2" stroke-linecap="round" stroke-linejoin="round"/>
</svg>
