<svg width="44" height="43" viewBox="0 0 44 43" fill="none" xmlns="http://www.w3.org/2000/svg">
<rect width="44" height="43.005" rx="10" fill="#E1F1F8"/>
<path d="M23.7013 16.3036C23.5181 16.4906 23.4155 16.7419 23.4155 17.0036C23.4155 17.2654 23.5181 17.5167 23.7013 17.7036L25.3013 19.3036C25.4882 19.4869 25.7396 19.5895 26.0013 19.5895C26.2631 19.5895 26.5144 19.4869 26.7013 19.3036L30.4713 15.5336C30.9742 16.6448 31.1264 17.8829 30.9078 19.0828C30.6892 20.2827 30.11 21.3875 29.2476 22.2499C28.3852 23.1124 27.2804 23.6915 26.0805 23.9101C24.8806 24.1287 23.6425 23.9765 22.5313 23.4736L15.6213 30.3836C15.2235 30.7815 14.6839 31.005 14.1213 31.005C13.5587 31.005 13.0191 30.7815 12.6213 30.3836C12.2235 29.9858 12 29.4462 12 28.8836C12 28.321 12.2235 27.7815 12.6213 27.3836L19.5313 20.4736C19.0285 19.3625 18.8762 18.1244 19.0949 16.9245C19.3135 15.7246 19.8926 14.6198 20.755 13.7574C21.6175 12.8949 22.7223 12.3158 23.9222 12.0972C25.1221 11.8786 26.3601 12.0308 27.4713 12.5336L23.7113 16.2936L23.7013 16.3036Z" stroke="#1CA7E8" stroke-width="2" stroke-linecap="round" stroke-linejoin="round"/>
</svg>
